<svg xmlns="http://www.w3.org/2000/svg" width="20.847" height="27.796" viewBox="0 0 20.847 27.796">
  <g id="Group_3" data-name="Group 3" transform="translate(0 -0.043)">
    <path id="Rectangle_217" d="M1.807,1.807V25.99H19.041V1.807H1.807M0,0H20.847V27.8H0Z" transform="translate(0 0.043)" fill="#92d4d0"/>
    <path id="Line_7" d="M15.229,5.657H5.5V3.85h9.729Z" transform="translate(2.144 1.544)" fill="#92d4d0"/>
    <path id="Line_8" d="M15.229,9.157H5.5V7.35h9.729Z" transform="translate(2.144 2.908)" fill="#92d4d0"/>
    <path id="Line_9" d="M15.229,12.657H5.5V10.85h9.729Z" transform="translate(2.144 4.272)" fill="#92d4d0"/>
    <path id="Line_13" d="M15.229,16.157H5.5V14.35h9.729Z" transform="translate(2.144 5.637)" fill="#92d4d0"/>
    <path id="Line_10" d="M4.585,12.657H2.5V10.85H4.585Z" transform="translate(0.975 4.272)" fill="#92d4d0"/>
    <path id="Line_14" d="M4.585,16.157H2.5V14.35H4.585Z" transform="translate(0.975 5.637)" fill="#92d4d0"/>
    <path id="Line_11" d="M4.585,9.157H2.5V7.35H4.585Z" transform="translate(0.975 2.908)" fill="#92d4d0"/>
    <path id="Line_12" d="M4.585,5.657H2.5V3.85H4.585Z" transform="translate(0.975 1.544)" fill="#92d4d0"/>
  </g>
</svg>
