<svg xmlns="http://www.w3.org/2000/svg" width="26.944" height="26.605" viewBox="0 0 26.944 26.605">
  <g id="Group_6" data-name="Group 6" transform="translate(0.008 -0.036)">
    <path id="Path_85" d="M11.508,16.885a5.518,5.518,0,1,1,5.518-5.518h0a5.521,5.521,0,0,1-5.518,5.518Zm0-9.44a3.922,3.922,0,1,0,3.922,3.922h0A3.921,3.921,0,0,0,11.508,7.445Z" transform="translate(1.977 1.964)" fill="#92d4d0"/>
    <path id="Path_86" d="M15.878,26.591l-.146-.838a2.29,2.29,0,0,0-4.507,0l-.146.838-.811-.2a13.514,13.514,0,0,1-6.448-3.683l-.638-.651.745-.532A2.287,2.287,0,0,0,2.6,17.377a2.243,2.243,0,0,0-.971.213l-.838.386-.266-.891a13.753,13.753,0,0,1,0-7.552l.266-.891.838.386A2.3,2.3,0,0,0,4.669,7.911a2.328,2.328,0,0,0,.213-.944,2.281,2.281,0,0,0-.957-1.861L3.18,4.574l.638-.651A13.272,13.272,0,0,1,10.253.2l.811-.2.146.838a2.282,2.282,0,0,0,2.26,1.875A2.3,2.3,0,0,0,15.731.838L15.864,0l.811.2A13.411,13.411,0,0,1,23.11,3.882l.638.651L23,5.066a2.287,2.287,0,0,0,1.33,4.148A2.243,2.243,0,0,0,25.3,9l.838-.386.266.891a13.753,13.753,0,0,1,0,7.552l-.266.891-.838-.386a2.29,2.29,0,0,0-3.045,1.13,2.328,2.328,0,0,0-.213.944A2.281,2.281,0,0,0,23,21.5l.745.532-.638.651a13.473,13.473,0,0,1-6.435,3.683l-.811.2v.04ZM13.458,22.3a3.88,3.88,0,0,1,3.563,2.353,12.119,12.119,0,0,0,4.388-2.5,3.856,3.856,0,0,1,2.925-6.382,4.56,4.56,0,0,1,.745.066,12.627,12.627,0,0,0,.293-2.553,11.732,11.732,0,0,0-.279-2.553,2.776,2.776,0,0,1-.745.066,3.873,3.873,0,0,1-3.869-3.869,3.781,3.781,0,0,1,.944-2.513,12.23,12.23,0,0,0-4.388-2.5,3.883,3.883,0,0,1-5.092,2.048A3.949,3.949,0,0,1,9.894,1.915a12.119,12.119,0,0,0-4.388,2.5,3.832,3.832,0,0,1,.944,2.513A3.89,3.89,0,0,1,2.582,10.8a4.4,4.4,0,0,1-.731-.066,12.627,12.627,0,0,0-.293,2.553,10.978,10.978,0,0,0,.293,2.553,2.776,2.776,0,0,1,.745-.066,3.873,3.873,0,0,1,3.869,3.869,3.781,3.781,0,0,1-.944,2.513,12.23,12.23,0,0,0,4.388,2.5A3.88,3.88,0,0,1,13.471,22.3h0Z" transform="translate(0 0.036)" fill="#92d4d0"/>
  </g>
</svg>
